<svg width="60" height="60" fill="none" xmlns="http://www.w3.org/2000/svg"><path d="M29.761 2.381c-11.597 0-21.52 7.228-25.5 17.424a1.183 1.183 0 0 0 1.284 1.654c.432-.07.788-.375.928-.787 3.638-9.31 12.68-15.91 23.288-15.91 13.823 0 25.003 11.18 25.003 24.999 0 13.823-11.18 25.003-25.003 25.003-10.608 0-19.65-6.6-23.288-15.91a1.182 1.182 0 0 0-.928-.791 1.201 1.201 0 0 0-1.143.44 1.185 1.185 0 0 0-.141 1.214c3.98 10.2 13.903 17.424 25.5 17.424 15.108 0 27.38-12.272 27.38-27.38 0-15.108-12.272-27.38-27.38-27.38Zm1.177 16.655a1.207 1.207 0 0 0-1.102.74c-.183.45-.075.966.277 1.304l7.49 7.49H3.572c-.427-.004-.83.22-1.045.59a1.192 1.192 0 0 0 1.045 1.791h34.031l-7.49 7.491c-.314.3-.441.745-.329 1.158.108.422.432.745.854.853.412.113.857-.014 1.157-.323l9.52-9.525a1.183 1.183 0 0 0 0-1.683l-9.52-9.525a1.194 1.194 0 0 0-.858-.361Z" fill="#000"/></svg>