<svg width="310" height="210" fill="none" xmlns="http://www.w3.org/2000/svg"><path fill="#000" fill-opacity=".1" d="M10 10h300v200H10z"/><path fill="#fff" stroke="#000" stroke-width="2" d="M1 1h298v198H1z"/><path stroke="#000" stroke-width="2" d="M249 169H51V1h198z"/><path fill="#000" fill-opacity=".3" d="M65 0h35v30H65z"/><path stroke="#000" stroke-width="2" d="M66 106h168v48H66z"/><path d="M65 105h170v19H65v-19ZM110 0h35v30h-35zm45 0h35v30h-35zM65 39h35v50H65z" fill="#000"/><path fill="#000" fill-opacity=".3" d="M110 39h35v50h-35z"/><path fill="#000" d="M155 39h35v50h-35z"/><path fill="#000" fill-opacity=".6" d="M200 39h35v50h-35z"/><path fill="#000" fill-opacity=".3" d="M200 0h35v30h-35z"/><path d="M61 128h166.136L233 153H66.864L61 128Z" fill="#B3B3B3"/></svg>