<svg width="60" height="60" fill="none" xmlns="http://www.w3.org/2000/svg"><path d="M14.287 3.572c-5.901 0-10.715 4.814-10.715 10.716 0 5.901 4.814 10.71 10.715 10.71 5.902 0 10.711-4.809 10.711-10.71 0-5.902-4.809-10.716-10.71-10.716Zm22.618 1.19c-.657 0-1.19.535-1.19 1.191v16.664c0 .656.533 1.19 1.19 1.19h16.668c.652 0 1.191-.534 1.191-1.19V5.953c0-.656-.539-1.19-1.19-1.19h-16.67ZM14.288 5.954a8.312 8.312 0 0 1 8.33 8.335 8.308 8.308 0 0 1-8.33 8.33 8.312 8.312 0 0 1-8.335-8.33 8.316 8.316 0 0 1 8.334-8.335Zm23.807 1.19h14.288v14.284H38.095V7.144Zm1.261 26.19c-.525 0-.984.342-1.144.839L34.58 45.947c-.15.473.014.994.407 1.294l9.526 7.28a1.21 1.21 0 0 0 1.453 0l9.52-7.28c.398-.3.558-.82.412-1.294l-3.632-11.775a1.203 1.203 0 0 0-1.144-.84H39.356Zm-25.125 1.19a1.216 1.216 0 0 0-.984.6L3.73 51.794a1.188 1.188 0 0 0 1.032 1.78h19.045c.426 0 .82-.224 1.036-.59.206-.37.21-.825.004-1.19l-9.525-16.67a1.203 1.203 0 0 0-1.092-.6Zm25.997 1.191h10.017l3.136 10.14-8.142 6.22-8.142-6.22 3.131-10.14Zm-25.94 2.4 7.471 13.078H6.816l7.471-13.078Z" fill="#000"/></svg>