<svg width="310" height="210" fill="none" xmlns="http://www.w3.org/2000/svg"><path fill="#000" fill-opacity=".1" d="M10 10h300v200H10z"/><path fill="#fff" stroke="#000" stroke-width="2" d="M1 1h298v198H1z"/><path fill="#fff" stroke="#000" stroke-width="2" d="M1 1h298v198H1z"/><path stroke="#000" stroke-width="2" d="M51 31h198v168H51z"/><path fill="#000" d="M65 71h35v50H65zm0-28h170v15H65zm0 87h35v50H65z"/><path fill="#000" fill-opacity=".3" d="M65 189h35v11H65zm45-118h35v50h-35z"/><path fill="#000" fill-opacity=".6" d="M110 130h35v50h-35z"/><path fill="#000" d="M110 189h35v11h-35zm45-118h35v50h-35zm0 59h35v50h-35zm0 59h35v11h-35z"/><path fill="#000" fill-opacity=".6" d="M200 71h35v50h-35z"/><path fill="#000" d="M200 130h35v50h-35z"/><path fill="#000" fill-opacity=".3" d="M200 189h35v11h-35z"/></svg>