<svg width="258" height="160" fill="none" xmlns="http://www.w3.org/2000/svg"><path d="M99.44 71h2.44v14h-2.44v-6.28h-5.8V85H91.2V71h2.44v5.28h5.8V71Zm9.09 14.26c-.92 0-1.76-.237-2.52-.71a5.315 5.315 0 0 1-1.81-1.9 5.34 5.34 0 0 1-.67-2.65c0-.733.13-1.417.39-2.05.26-.64.616-1.2 1.07-1.68.46-.487.993-.867 1.6-1.14a4.665 4.665 0 0 1 1.94-.41c.92 0 1.756.237 2.51.71a5.192 5.192 0 0 1 1.81 1.91c.453.8.68 1.687.68 2.66 0 .727-.13 1.407-.39 2.04a5.418 5.418 0 0 1-1.08 1.68c-.454.48-.984.857-1.59 1.13a4.63 4.63 0 0 1-1.94.41Zm0-2.44c.486 0 .923-.13 1.31-.39.386-.26.69-.603.91-1.03.226-.427.34-.893.34-1.4 0-.52-.117-.993-.35-1.42a2.678 2.678 0 0 0-.93-1.03 2.247 2.247 0 0 0-1.28-.39c-.48 0-.914.13-1.3.39-.387.26-.694.607-.92 1.04a2.99 2.99 0 0 0-.34 1.41c0 .527.116 1.003.35 1.43.233.427.543.767.93 1.02.393.247.82.37 1.28.37Zm5.942-1.52V75h2.44v5.66c0 .393.097.753.29 1.08.193.32.45.577.77.77.327.187.683.28 1.07.28.4 0 .76-.093 1.08-.28.32-.193.577-.45.77-.77.193-.327.29-.687.29-1.08V75h2.44l.01 10h-2.44l-.01-.91c-.347.36-.757.647-1.23.86a3.75 3.75 0 0 1-1.52.31c-.727 0-1.39-.177-1.99-.53-.6-.36-1.08-.837-1.44-1.43a3.871 3.871 0 0 1-.53-2Zm14.112 3.88a5.528 5.528 0 0 1-1.51-.31 4.468 4.468 0 0 1-1.28-.73 3.12 3.12 0 0 1-.86-1.1l2.06-.88c.08.133.21.277.39.43.18.147.393.27.64.37.253.1.53.15.83.15.253 0 .493-.033.72-.1.233-.073.42-.183.56-.33a.774.774 0 0 0 .22-.57c0-.247-.087-.437-.26-.57a1.598 1.598 0 0 0-.64-.31c-.254-.073-.5-.14-.74-.2a7.251 7.251 0 0 1-1.77-.59 3.769 3.769 0 0 1-1.31-1.03c-.327-.427-.49-.94-.49-1.54 0-.66.173-1.23.52-1.71.353-.48.81-.85 1.37-1.11a4.33 4.33 0 0 1 1.83-.39c.793 0 1.52.167 2.18.5.666.327 1.193.79 1.58 1.39l-1.93 1.14a1.621 1.621 0 0 0-.39-.44 2.13 2.13 0 0 0-.57-.34 1.939 1.939 0 0 0-.67-.16c-.3-.013-.574.013-.82.08-.247.067-.447.18-.6.34-.147.16-.22.373-.22.64 0 .253.1.443.3.57.2.12.44.213.72.28.286.067.56.14.82.22.586.193 1.136.43 1.65.71.52.28.936.623 1.25 1.03.313.407.463.893.45 1.46 0 .647-.194 1.213-.58 1.7a3.7 3.7 0 0 1-1.5 1.1 4.163 4.163 0 0 1-1.95.3Zm11.101-7.74h-1.94V85h-2.44v-7.56h-1.48V75h1.48v-3.14h2.44V75h1.94v2.44Zm5.974 7.82c-.92 0-1.76-.237-2.52-.71a5.315 5.315 0 0 1-1.81-1.9 5.34 5.34 0 0 1-.67-2.65c0-.733.13-1.417.39-2.05.26-.64.616-1.2 1.07-1.68.46-.487.993-.867 1.6-1.14a4.665 4.665 0 0 1 1.94-.41c.92 0 1.756.237 2.51.71a5.192 5.192 0 0 1 1.81 1.91c.453.8.68 1.687.68 2.66 0 .727-.13 1.407-.39 2.04a5.418 5.418 0 0 1-1.08 1.68c-.454.48-.984.857-1.59 1.13a4.63 4.63 0 0 1-1.94.41Zm0-2.44c.486 0 .923-.13 1.31-.39.386-.26.69-.603.91-1.03.226-.427.34-.893.34-1.4 0-.52-.117-.993-.35-1.42a2.678 2.678 0 0 0-.93-1.03 2.247 2.247 0 0 0-1.28-.39c-.48 0-.914.13-1.3.39-.387.26-.694.607-.92 1.04a2.99 2.99 0 0 0-.34 1.41c0 .527.116 1.003.35 1.43.233.427.543.767.93 1.02.393.247.82.37 1.28.37Zm15.717-4.14V85h-2.44v-5.68c0-.393-.097-.75-.29-1.07a2.118 2.118 0 0 0-.78-.77 2.03 2.03 0 0 0-1.07-.29c-.394 0-.754.097-1.08.29-.32.187-.577.443-.77.77-.187.32-.28.677-.28 1.07V85h-2.44l-.01-10h2.44l.01.89c.34-.36.746-.643 1.22-.85.473-.213.983-.32 1.53-.32.726 0 1.39.18 1.99.54.6.353 1.076.83 1.43 1.43.36.593.54 1.257.54 1.99ZM54 0h30v30H54zm100 130h30v30h-30zM176 0h30v30h-30zm52 62h30v30h-30zm-4.646 15.854a.5.5 0 0 0 0-.708l-3.182-3.181a.501.501 0 0 0-.708.707l2.829 2.828-2.829 2.828a.5.5 0 0 0 .708.707l3.182-3.181Zm-48.708-.708a.5.5 0 0 0 0 .708l3.182 3.181a.501.501 0 0 0 .708-.707l-2.829-2.828 2.829-2.828a.5.5 0 0 0-.708-.707l-3.182 3.181ZM223 77h-48v1h48v-1Zm-9.354-61.854a.5.5 0 0 0 0 .708l3.182 3.181a.501.501 0 0 0 .708-.707l-2.829-2.828 2.829-2.828a.5.5 0 0 0-.708-.708l-3.182 3.182ZM241 15.5h.5V15h-.5v.5Zm-.354 39.354a.501.501 0 0 0 .708 0l3.182-3.182a.5.5 0 0 0-.708-.707L241 53.793l-2.828-2.828a.501.501 0 0 0-.708.707l3.182 3.182ZM214 16h27v-1h-27v1Zm26.5-.5v39h1v-39h-1ZM27 109h30v30H27zm17.354-92.646a.5.5 0 0 0 0-.708l-3.182-3.182a.5.5 0 1 0-.707.708L43.293 16l-2.828 2.828a.5.5 0 1 0 .707.707l3.182-3.181ZM1 16v-.5H.5v.5H1Zm0 109.5H.5v.5H1v-.5Zm16.854.354a.501.501 0 0 0 0-.708l-3.182-3.182a.5.5 0 0 0-.708.708l2.829 2.828-2.829 2.828a.501.501 0 0 0 .708.708l3.182-3.182ZM44 15.5H1v1h43v-1ZM.5 16v109.5h1V16h-1ZM1 126h16.5v-1H1v1ZM168.354 16.354a.5.5 0 0 0 0-.708l-3.182-3.182a.501.501 0 0 0-.708.708L167.293 16l-2.829 2.828a.5.5 0 0 0 .708.707l3.182-3.181ZM132 16v-.5h-.5v.5h.5Zm-.354 43.354a.501.501 0 0 0 .708 0l3.182-3.182a.5.5 0 0 0-.708-.707L132 58.293l-2.828-2.828a.501.501 0 0 0-.708.707l3.182 3.182ZM168 15.5h-36v1h36v-1Zm-36.5.5v43h1V16h-1Zm13.854 129.854a.502.502 0 0 0 0-.708l-3.182-3.182a.502.502 0 0 0-.708.708l2.829 2.828-2.829 2.828a.502.502 0 0 0 .708.708l3.182-3.182ZM108 145.5h-.5v.5h.5v-.5Zm.354-47.354a.501.501 0 0 0-.708 0l-3.182 3.182a.502.502 0 0 0 .708.708L108 99.207l2.828 2.829a.502.502 0 0 0 .708-.708l-3.182-3.182ZM145 145h-37v1h37v-1Zm-36.5.5v-47h-1v47h1Zm-65.854-42.646a.5.5 0 0 0 .708 0l3.181-3.182a.5.5 0 1 0-.707-.707L43 101.793l-2.828-2.829a.5.5 0 1 0-.707.708l3.181 3.182ZM43 77v-.5h-.5v.5h.5Zm36.854.354a.5.5 0 0 0 0-.708l-3.182-3.181a.5.5 0 1 0-.707.707L78.793 77l-2.829 2.828a.5.5 0 1 0 .708.707l3.182-3.181ZM43.5 102.5V77h-1v25.5h1Zm-.5-25h36.5v-1H43v1Zm26.354-41.354a.5.5 0 0 0-.708 0l-3.181 3.182a.5.5 0 1 0 .707.707L69 37.207l2.828 2.828a.5.5 0 1 0 .707-.707l-3.181-3.182ZM69 55h-.5v.5h.5V55Zm34.5 0h.5v-.5h-.5v.5Zm-.354 6.854a.501.501 0 0 0 .708 0l3.182-3.182a.5.5 0 0 0-.708-.707l-2.828 2.828-2.828-2.828a.5.5 0 0 0-.707.707l3.181 3.182ZM68.5 36.5V55h1V36.5h-1Zm.5 19h34.5v-1H69v1Zm34-.5v6.5h1V55h-1Zm140.354 42.146a.501.501 0 0 0-.708 0l-3.182 3.182a.502.502 0 0 0 .708.708L243 98.207l2.828 2.829a.502.502 0 0 0 .708-.708l-3.182-3.182ZM243 145.5v.5h.5v-.5h-.5Zm-50.854-.354a.502.502 0 0 0 0 .708l3.182 3.182a.502.502 0 0 0 .708-.708l-2.829-2.828 2.829-2.828a.502.502 0 0 0-.708-.708l-3.182 3.182ZM242.5 97.5v48h1v-48h-1Zm.5 47.5h-50.5v1H243v-1Z" fill="#000"/></svg>