<svg width="273" height="257" fill="none" xmlns="http://www.w3.org/2000/svg"><path fill="#000" fill-opacity=".05" d="M136 146h50v50h-50zm87-91h50v50h-50zM60 67h50v50H60z"/><path d="m238.295 69.799.668 2.674c-.072.222-.979 3.093-.979 7.927 0 4.797.895 7.223.981 7.45l-.629 3.144 2.605-.652 1.508.502 1.487-.496 1.488.496 1.488-.496 1.488.496 1.489-.496 1.488.496 1.488-.496 1.489.496 1.507-.502 2.606.652-.155-.77-.476-2.38c.055-.197.982-3.512.982-7.444 0-3.943-.929-7.716-.978-7.922l.668-2.68-2.647.663-1.507-.504-1.489.496-1.488-.496-1.488.496-1.489-.496-1.488.496-1.488-.496-1.488.496-1.487-.496-1.508.504-2.646-.662Zm4.154 1.205 1.487.496 1.488-.496 1.488.496 1.488-.496 1.489.496 1.488-.496 1.488.496 1.489-.496 1.468.488 1.321-.33-.325 1.303.032.119s.976 3.932.976 7.816c0 3.885-.972 7.303-.972 7.303l-.034.117.364 1.828-1.362-.34-1.468.49-1.489-.495-1.488.496-1.488-.496-1.489.496-1.488-.496-1.488.496-1.488-.496-1.487.496-1.469-.49-1.365.34.264-1.311h15.467a.497.497 0 1 0 0-.992h-15.518c-.228-.686-.851-2.907-.851-6.946 0-3.377.455-5.767.74-6.943h15.629a.497.497 0 1 0 0-.992h-15.362l-.326-1.303 1.322.33 1.469-.488Zm1.983 5.924s-.643-.002-1.266.414c-.625.416-1.213 1.28-1.213 2.728a3.61 3.61 0 0 0 1.434 2.916c.801.612 1.75.887 2.533.887.687 0 1.279-.139 1.82-.35.43.159 1.092.35 2.149.35 3.197 0 4.961-2.232 4.961-4.465 0-1.101-.405-1.789-.862-2.133-.457-.343-.959-.347-.959-.347-1.074 0-1.826.279-2.49.527-.66.248-1.23.465-2.139.465-.908 0-1.472-.215-2.035-.457-.564-.24-1.148-.535-1.933-.535Zm0 .992c.537 0 .947.203 1.541.457.595.254 1.353.535 2.427.535 1.077 0 1.829-.28 2.489-.527.105-.04.207-.065.308-.102-.381.565-.734 1.203-1.148 1.85-.922 1.443-2.026 2.748-4.129 2.748-.535 0-1.324-.22-1.93-.682-.605-.463-1.045-1.127-1.045-2.129 0-1.2.403-1.658.77-1.902.369-.246.717-.248.717-.248Zm8.597 0s.162-.004.366.15c.203.153.462.457.462 1.338 0 1.736-1.212 3.473-3.968 3.473-.42 0-.537-.084-.809-.129.75-.6 1.338-1.354 1.807-2.084.488-.766.883-1.512 1.25-2.027.367-.512.644-.721.892-.721Zm-8.597 1.488a.498.498 0 0 0-.496.496.497.497 0 1 0 .496-.496Zm1.984 0a.497.497 0 0 0 0 .992.497.497 0 0 0 0-.992Zm-.992 1.489a.498.498 0 0 0-.496.496.497.497 0 1 0 .496-.496Z" fill="#000"/><g clip-path="url(#a)"><path d="M83.408 79.953c-.838 0-1.533.695-1.533 1.535v.993a.537.537 0 0 0 .51.542l-.45 4.573c-.134.117-.583.486-1.162 1.209-.66.826-1.363 1.935-1.363 3.177 0 2.082.356 3.493.356 5.254 0 2.758-.356 3.85-.356 6.155a1.45 1.45 0 0 0 1.426 1.441h7.13a1.45 1.45 0 0 0 1.427-1.441c0-2.305-.358-3.397-.358-6.155 0-1.761.358-3.172.358-5.254 0-1.242-.704-2.351-1.366-3.177-.576-.723-1.025-1.092-1.162-1.21l-.449-4.572a.537.537 0 0 0 .512-.542v-.993c0-.84-.696-1.535-1.535-1.535h-1.985Zm0 1.086h1.985c.257 0 .449.192.449.45v.433a.557.557 0 0 0-.17.016h-2.604a.505.505 0 0 0-.109-.016v-.434c0-.257.191-.449.45-.449Zm.031 1.984h1.922l.48 4.852a.518.518 0 0 0 .188.34s.586.502 1.178 1.24c.59.738 1.13 1.707 1.13 2.527 0 .694-.05 1.309-.106 1.907h-1.473c-.07-.135-.137-.272-.219-.387-.533-.77-1.346-1.086-2.139-1.086-.793 0-1.603.316-2.138 1.086-.082.115-.147.252-.217.387h-1.473a18.98 18.98 0 0 1-.11-1.907c0-.82.542-1.789 1.134-2.527.59-.738 1.177-1.24 1.177-1.24a.524.524 0 0 0 .186-.34l.48-4.852Zm.961 10.354c.577 0 1.002.148 1.366.666.076.111.148.25.216.404l.016.047a.55.55 0 0 0 .076.186c.198.56.326 1.35.326 2.433 0 1.076-.13 1.86-.326 2.418a.501.501 0 0 0-.107.264v.016a2.751 2.751 0 0 1-.201.371c-.364.519-.79.668-1.366.668-.574 0-1.002-.149-1.363-.668a2.34 2.34 0 0 1-.248-.48c-.002-.007-.014-.01-.016-.016a.3.3 0 0 0-.015-.045c-.215-.565-.358-1.383-.358-2.528 0-1.586.274-2.55.637-3.07.361-.518.79-.666 1.363-.666Zm-3.734 1.504h1.006c-.15.613-.233 1.347-.233 2.232 0 .885.083 1.62.233 2.233h-.93c.043-.608.078-1.276.078-2.11 0-.855-.076-1.605-.154-2.355Zm6.463 0h1.008c-.08.75-.155 1.5-.155 2.355 0 .834.034 1.502.077 2.11h-.93c.15-.614.232-1.348.232-2.233s-.082-1.619-.232-2.232Zm-6.463 5.457h1.379c.07.135.135.271.217.387.535.769 1.345 1.086 2.138 1.086.793 0 1.606-.317 2.14-1.086.081-.116.147-.252.218-.387h1.379c.095.99.2 1.873.2 3.053 0 .273-.146.388-.37.388h-7.131c-.225 0-.373-.115-.373-.388 0-1.18.107-2.063.203-3.053Z" fill="#000"/></g><path d="M156.652 160.488c-.677 0-1.273.463-1.441 1.119l-.223.866h-.035c-.432 0-.822.144-1.109.39-.289.246-.471.571-.594.91-.246.684-.281 1.465-.281 2.172 0 .272.222.496.496.496h.555l1.91 14.889a.03.03 0 0 1 .002.012c.091.594.609.972 1.187.972h8.563c.576 0 1.093-.38 1.187-.972l.002-.012 1.91-14.889h.557a.498.498 0 0 0 .496-.496c0-.707-.035-1.488-.281-2.172-.125-.339-.307-.664-.596-.91a1.695 1.695 0 0 0-1.107-.39h-.047l-.215-.858c.002 0 .002 0 0 0a1.492 1.492 0 0 0-1.443-1.127h-9.493Zm0 .992h9.493a.49.49 0 0 1 .48.375l.154.618h-10.765l.158-.621a.492.492 0 0 1 .48-.372Zm-1.248 1.983c.016.002.03.002.045.002h12.401c.228 0 .349.053.464.152.114.1.223.264.307.496.121.338.135.852.16 1.336h-14.242a.604.604 0 0 0-.105-.008.597.597 0 0 0-.059.008h-.355c.025-.484.039-.998.162-1.336.082-.232.191-.396.306-.496.114-.099.237-.152.465-.152h.42c.012 0 .022 0 .031-.002Zm-.384 2.978h12.761l-.574 4.463h-2.342c-.656-1.445-1.929-2.474-3.469-2.478-.023 0-.044 0-.066.002-1.523.025-2.767 1.049-3.408 2.476h-2.328l-.574-4.463Zm6.353 2.975h.014c1.201 0 2.232.836 2.718 2.156a.492.492 0 0 0 .465.324h2.512l-.318 2.481h-2.194a.494.494 0 0 0-.466.328 4.12 4.12 0 0 1-.385.811c-.563.863-1.385 1.33-2.274 1.341h-.035c-.879 0-1.699-.447-2.275-1.291v-.002a4.018 4.018 0 0 1-.426-.861.493.493 0 0 0-.465-.326h-2.207l-.318-2.481h2.502c.209 0 .396-.13.467-.326.468-1.306 1.478-2.14 2.671-2.154h.014Zm-.004.992c-.611.006-1.127.387-1.457.893-.326.504-.506 1.152-.498 1.857.006.705.201 1.35.539 1.848.342.498.865.865 1.479.859.613-.006 1.127-.386 1.457-.89.328-.504.506-1.155.498-1.86-.006-.705-.199-1.349-.539-1.847s-.864-.866-1.479-.86Zm.012.992c.211-.002.437.123.648.426.207.305.362.774.366 1.301.005.525-.135.996-.336 1.307-.205.31-.428.437-.639.439-.211.002-.438-.123-.647-.426-.207-.304-.363-.773-.367-1.301-.006-.525.137-.996.338-1.306.203-.309.426-.438.637-.44Zm-5.215 3.969h1.772c.113.258.216.52.378.758.737 1.074 1.872 1.723 3.094 1.723h.041c1.24-.014 2.377-.688 3.096-1.791h.002c.144-.219.232-.455.332-.69h1.756l-.748 5.82c-.002.022-.11.133-.207.133h-8.563c-.096 0-.203-.111-.205-.133l-.748-5.82Zm92.541-51.576a.999.999 0 0 0-1.414 0l-6.364 6.364a.999.999 0 1 0 1.414 1.414l5.657-5.657 5.657 5.657a.999.999 0 1 0 1.414-1.414l-6.364-6.364ZM248 255.5v1h1v-1h-1Zm-1-131v131h2v-131h-2Zm1 130H-15v2h263v-2Zm-131.293-81.293a.999.999 0 0 0 0-1.414l-6.364-6.364a.999.999 0 1 0-1.414 1.414l5.657 5.657-5.657 5.657a.999.999 0 1 0 1.414 1.414l6.364-6.364ZM116 171.5H-37v2h153v-2ZM84.293 47.707a1 1 0 0 0 1.414 0l6.364-6.364a1 1 0 0 0-1.414-1.414L85 45.586l-5.657-5.657a1 1 0 0 0-1.414 1.414l6.364 6.364ZM85 1h1V0h-1v1Zm1 46V1.001L85 1h-1v46h2ZM85 0H-70v2H85V0Z" fill="#000"/><defs><clipPath id="a"><path fill="#fff" transform="translate(72 80)" d="M0 0h25v25H0z"/></clipPath></defs></svg>