<svg width="136" height="370" fill="none" xmlns="http://www.w3.org/2000/svg"><path fill="#000" fill-opacity=".05" d="M86 78.25h50v50H86zm-66 99h50v50H20z"/><path d="m101.295 93.049.668 2.674c-.072.222-.979 3.093-.979 7.927 0 4.797.895 7.223.981 7.45l-.629 3.144 2.605-.652 1.508.502 1.487-.496 1.488.496 1.488-.496 1.488.496 1.489-.496 1.488.496 1.488-.496 1.489.496 1.507-.502 2.606.652-.155-.769-.476-2.381c.055-.198.982-3.512.982-7.444 0-3.943-.929-7.716-.978-7.922l.668-2.68-2.647.663-1.507-.504-1.489.496-1.488-.496-1.488.496-1.489-.496-1.488.496-1.488-.496-1.488.496-1.487-.496-1.508.504-2.646-.662Zm4.154 1.205 1.487.496 1.488-.496 1.488.496 1.488-.496 1.489.496 1.488-.496 1.488.496 1.489-.496 1.468.488 1.321-.33-.325 1.303.032.119s.976 3.932.976 7.816c0 3.885-.972 7.303-.972 7.303l-.034.117.364 1.828-1.362-.339-1.468.49-1.489-.496-1.488.496-1.488-.496-1.489.496-1.488-.496-1.488.496-1.488-.496-1.487.496-1.469-.49-1.365.339.264-1.31h15.467a.497.497 0 1 0 0-.992h-15.518c-.228-.686-.851-2.907-.851-6.946 0-3.377.455-5.767.74-6.943h15.629a.497.497 0 1 0 0-.992h-15.362l-.326-1.303 1.322.33 1.469-.488Zm1.983 5.924s-.643-.002-1.266.414c-.625.416-1.213 1.279-1.213 2.728 0 1.311.633 2.303 1.434 2.916.801.612 1.75.887 2.533.887.687 0 1.279-.139 1.82-.35.43.159 1.092.35 2.149.35 3.197 0 4.961-2.232 4.961-4.465 0-1.101-.405-1.789-.862-2.133-.457-.343-.959-.347-.959-.347-1.074 0-1.826.279-2.49.527-.66.248-1.23.465-2.139.465-.908 0-1.472-.215-2.035-.457-.564-.24-1.148-.535-1.933-.535Zm0 .992c.537 0 .947.203 1.541.457.595.254 1.353.535 2.427.535 1.077 0 1.829-.279 2.489-.527.105-.039.207-.065.308-.102-.381.565-.734 1.203-1.148 1.85-.922 1.443-2.026 2.748-4.129 2.748-.535 0-1.324-.221-1.93-.682-.605-.463-1.045-1.127-1.045-2.129 0-1.201.403-1.658.77-1.902.369-.246.717-.248.717-.248Zm8.597 0s.162-.004.366.15c.203.153.462.457.462 1.338 0 1.737-1.212 3.473-3.968 3.473-.42 0-.537-.084-.809-.129.75-.6 1.338-1.354 1.807-2.084.488-.766.883-1.512 1.25-2.027.367-.512.644-.721.892-.721Zm-8.597 1.488a.497.497 0 1 0 .496.496.497.497 0 0 0-.496-.496Zm1.984 0a.497.497 0 0 0 0 .992.497.497 0 0 0 0-.992Zm-.992 1.488a.498.498 0 0 0-.496.497.497.497 0 1 0 .496-.497Z" fill="#000"/><g clip-path="url(#a)"><path d="M43.408 190.203c-.838 0-1.533.695-1.533 1.535v.992c-.004.29.223.53.51.543l-.45 4.573c-.134.117-.583.486-1.162 1.209-.66.826-1.363 1.935-1.363 3.177 0 2.082.356 3.493.356 5.254 0 2.758-.356 3.85-.356 6.155a1.45 1.45 0 0 0 1.426 1.441h7.13a1.45 1.45 0 0 0 1.427-1.441c0-2.305-.358-3.397-.358-6.155 0-1.761.358-3.172.358-5.254 0-1.242-.703-2.351-1.366-3.177-.576-.723-1.025-1.092-1.162-1.209l-.449-4.573a.536.536 0 0 0 .512-.543v-.992c0-.84-.696-1.535-1.535-1.535h-1.985Zm0 1.086h1.985c.257 0 .449.191.449.449v.434a.545.545 0 0 0-.17.016h-2.604a.499.499 0 0 0-.109-.016v-.434c0-.258.191-.449.45-.449Zm.032 1.984h1.921l.48 4.852a.518.518 0 0 0 .188.34s.586.502 1.178 1.24c.59.738 1.13 1.707 1.13 2.527 0 .694-.05 1.309-.107 1.907h-1.472c-.07-.135-.137-.272-.219-.387-.533-.77-1.346-1.086-2.139-1.086-.793 0-1.603.316-2.138 1.086-.082.115-.147.252-.217.387h-1.473a18.99 18.99 0 0 1-.11-1.907c0-.82.542-1.789 1.134-2.527.59-.738 1.177-1.24 1.177-1.24a.524.524 0 0 0 .186-.34l.48-4.852Zm.96 10.354c.577 0 1.002.148 1.366.666.076.111.148.25.216.404l.016.047a.55.55 0 0 0 .076.186c.198.56.326 1.349.326 2.433 0 1.076-.13 1.86-.326 2.418a.5.5 0 0 0-.107.264v.016a2.751 2.751 0 0 1-.201.371c-.364.519-.79.668-1.366.668-.574 0-1.002-.149-1.363-.668a2.327 2.327 0 0 1-.248-.481c-.002-.006-.014-.01-.016-.015a.263.263 0 0 0-.015-.045c-.215-.565-.358-1.383-.358-2.528 0-1.586.274-2.551.637-3.07.361-.518.79-.666 1.363-.666Zm-3.734 1.504h1.006c-.15.613-.232 1.348-.232 2.232 0 .885.082 1.619.232 2.233h-.93c.043-.608.078-1.276.078-2.11 0-.855-.076-1.605-.154-2.355Zm6.463 0h1.008c-.08.75-.155 1.5-.155 2.355 0 .834.034 1.502.077 2.11h-.93c.15-.614.232-1.348.232-2.233 0-.884-.082-1.619-.232-2.232Zm-6.463 5.457h1.379c.07.135.135.271.217.387.535.769 1.345 1.086 2.138 1.086.793 0 1.606-.317 2.14-1.086.081-.116.148-.252.218-.387h1.379c.095.99.2 1.873.2 3.053 0 .273-.146.388-.37.388h-7.131c-.225 0-.373-.115-.373-.388 0-1.18.107-2.063.203-3.053Z" fill="#000"/></g><path d="M111.707 147.043a.999.999 0 0 0-1.414 0l-6.364 6.364a.999.999 0 1 0 1.414 1.414l5.657-5.657 5.657 5.657a.999.999 0 1 0 1.414-1.414l-6.364-6.364ZM111 368.75v1h1v-1h-1Zm-1-221v221h2v-221h-2Zm1 220h-263v2h263v-2ZM44.293 157.957a1 1 0 0 0 1.414 0l6.364-6.364a1 1 0 1 0-1.414-1.414L45 155.836l-5.657-5.657a1 1 0 1 0-1.414 1.414l6.364 6.364ZM45 1.25h1v-1h-1v1Zm1 156V1.251l-1-.001-1 .001V157.25h2Zm-1-157h-155v2H45v-2Z" fill="#000"/><defs><clipPath id="a"><path fill="#fff" transform="translate(32 190.25)" d="M0 0h25v25H0z"/></clipPath></defs></svg>