<svg width="136" height="370" fill="none" xmlns="http://www.w3.org/2000/svg"><path fill="#000" fill-opacity=".05" d="M50 291.75H0v-50h50zm66-99H66v-50h50z"/><path d="M24.293 222.957a1 1 0 0 0 1.414 0l6.364-6.364a1 1 0 1 0-1.414-1.414L25 220.836l-5.657-5.657a1 1 0 1 0-1.414 1.414l6.364 6.364ZM25 1.25v-1h-1v1h1Zm1 221v-221h-2v221h2Zm-1-220h263v-2H25v2Zm66.707 209.793a1 1 0 0 0-1.414 0l-6.364 6.364a1 1 0 1 0 1.414 1.414L91 214.164l5.657 5.657a1 1 0 1 0 1.414-1.414l-6.364-6.364ZM91 368.75h-1v1h1v-1Zm-1-156v155.999l1 .001 1-.001V212.75h-2Zm1 157h155v-2H91v2ZM30.299 255.246l-4.465.496a.49.49 0 0 0-.426.371l-1.262 5.082h-5.2c-1.09 0-1.985.895-1.985 1.983v.496c0 .273.223.496.496.496h.56l1.803 12.611a1.494 1.494 0 0 0 1.473 1.278h6.215c.736 0 1.369-.547 1.473-1.278l1.802-12.611h.563a.497.497 0 0 0 .496-.496v-.496a1.994 1.994 0 0 0-1.985-1.983H25.17l1.115-4.508 4.123-.457-.11-.984Zm-11.354 6.94h10.912c.553 0 .993.441.993.992H17.953c0-.551.44-.992.992-.992Zm.075 1.984h10.76l-.986 6.902h-.436a.498.498 0 1 0 0 .992h.295l-.213 1.489h-.578a.498.498 0 1 0 0 .992h.436l-.301 2.096a.488.488 0 0 1-.49.427h-6.215a.491.491 0 0 1-.49-.427l-.301-2.096h.426a.503.503 0 0 0 .437-.246.507.507 0 0 0 0-.5.503.503 0 0 0-.437-.246h-.567l-.213-1.489h.284a.5.5 0 0 0 .437-.246.507.507 0 0 0 0-.5.503.503 0 0 0-.437-.246h-.426l-.986-6.902Zm2.9 2.976a.993.993 0 1 0 .001 1.986.993.993 0 0 0-.001-1.986Zm4.96 0a.992.992 0 1 0 0 1.983.992.992 0 0 0 0-1.983Zm-.48 4.063a.492.492 0 0 0-.38.168s-.567.631-1.62.631c-1.05 0-1.617-.631-1.617-.631a.497.497 0 1 0-.732.668s.88.955 2.35.955c1.468 0 2.351-.955 2.351-.955a.497.497 0 0 0-.352-.836Zm59.29-114.967a1.25 1.25 0 0 0-1.241 1.24c0 .372.17.702.434.93a1.956 1.956 0 0 1-.17.358c-.166.257-.405.554-.653.867-.248.312-.505.644-.713.976-.17.272-.322.551-.37.867v.016a.502.502 0 0 0-.016.342v14.246c0 .527.234.971.588 1.301l.03.031a.484.484 0 0 0 .079.078.63.63 0 0 0 .078.047c.133.098.277.191.434.264l.076.232a1.495 1.495 0 0 0 1.412 1.022h9.486c.639 0 1.21-.416 1.41-1.022l.079-.232c.17-.078.334-.182.48-.295a.305.305 0 0 0 .031-.031c.01-.008.022-.008.03-.016a.306.306 0 0 0 .03-.031c.384-.334.638-.797.638-1.348v-14.293a.363.363 0 0 0 0-.092v-.062a.507.507 0 0 0-.016-.094c-.04-.342-.191-.641-.373-.93a10.832 10.832 0 0 0-.713-.976c-.248-.313-.486-.608-.65-.867a1.728 1.728 0 0 1-.17-.358c.263-.228.433-.558.433-.93a1.25 1.25 0 0 0-1.24-1.24H85.69Zm0 .992h9.423c.14 0 .248.106.248.248a.243.243 0 0 1-.248.248H85.69a.242.242 0 0 1-.248-.248c0-.142.106-.248.248-.248Zm.06 1.489h9.3c.073.189.092.398.202.572.207.328.465.65.713.961.248.312.486.623.652.885.016.023.018.039.031.062h-8.277a.5.5 0 0 0-.475.518.498.498 0 0 0 .52.474h8.433v13.889a.956.956 0 0 1-.14.496H88.37a.5.5 0 0 0-.475.52.498.498 0 0 0 .52.472h7.24l-.047.155a.487.487 0 0 1-.465.341h-9.486a.488.488 0 0 1-.465-.341l-.047-.155h1.285a.502.502 0 0 0 .438-.246.507.507 0 0 0 0-.5.498.498 0 0 0-.438-.246h-2.34a.968.968 0 0 1-.138-.496v-13.889h2.478a.5.5 0 0 0 .438-.246.507.507 0 0 0 0-.5.498.498 0 0 0-.438-.246h-2.277c.014-.023.016-.039.031-.062.164-.262.403-.573.65-.885.249-.311.507-.633.714-.961.111-.174.13-.383.2-.572Z" fill="#000"/></svg>