<svg width="60" height="60" fill="none" xmlns="http://www.w3.org/2000/svg"><path d="m29.761 2.297-6.59 6.59c-.31.296-.437.746-.324 1.158.108.418.431.746.853.849.413.112.858-.014 1.158-.324l3.712-3.717V17.86c-.004.427.22.825.591 1.046.375.21.83.21 1.2 0 .375-.22.595-.62.59-1.046V6.853l3.718 3.717c.295.31.745.436 1.158.324.417-.103.745-.431.848-.849a1.182 1.182 0 0 0-.323-1.158l-6.591-6.59Zm17.86 9.525-6.591 6.59a1.18 1.18 0 0 0-.324 1.158c.103.418.431.74.849.849.412.112.862-.014 1.157-.324l3.718-3.717V27.38c-.005.43.215.83.59 1.045a1.192 1.192 0 0 0 1.79-1.045V16.378l3.713 3.717c.3.31.746.436 1.158.324.422-.108.746-.431.853-.849a1.171 1.171 0 0 0-.328-1.157l-6.586-6.591Zm-35.715 8.33-6.59 6.59c-.314.3-.436.745-.328 1.158.107.422.435.745.853.853.412.113.862-.014 1.157-.328l3.718-3.713v11.002a1.192 1.192 0 1 0 2.38 0V24.712l3.713 3.713c.3.314.746.44 1.158.328.422-.108.745-.431.853-.853a1.177 1.177 0 0 0-.328-1.158l-6.586-6.59Zm11.902 1.275c-.656 0-1.19.539-1.19 1.19v32.147c0 .652.534 1.19 1.19 1.19h11.906c.656 0 1.19-.538 1.19-1.19V22.617c0-.651-.534-1.19-1.19-1.19H23.808Zm1.19 2.38h9.525v29.766h-9.525V23.808Zm16.67 7.145c-.657 0-1.191.534-1.191 1.19v22.622c0 .652.534 1.19 1.19 1.19h11.907c.651 0 1.19-.538 1.19-1.19V32.142c0-.656-.539-1.19-1.19-1.19H41.666Zm1.19 2.38h9.525v20.241h-9.525v-20.24ZM5.953 39.287c-.656 0-1.19.534-1.19 1.19v14.288c0 .652.534 1.19 1.19 1.19H17.86c.652 0 1.186-.538 1.186-1.19V40.477a1.19 1.19 0 0 0-1.186-1.191H5.953Zm1.19 2.381h9.526v11.906H7.144V41.667Z" fill="#000"/></svg>