<svg width="184" height="36" fill="none" xmlns="http://www.w3.org/2000/svg"><path d="M13.07 27.111a12.806 12.806 0 0 0 9.102-3.742 12.776 12.776 0 0 0 3.746-9.091v-5.89a3.72 3.72 0 0 0-3.726-3.721h-7.787l3.67 3.944L.668 26.167v3.722l5.451-5.445v5.445L8.9 27.11" fill="#000"/><path d="M21.636 36h-3.894l-5.34-5.333v-4.223h.668c3.23 0 6.329-1.281 8.613-3.563a12.16 12.16 0 0 0 3.568-8.603v-5.89a3.054 3.054 0 0 0-3.06-3.055h-6.284l3.059 3.278L1.335 26.445v1.833l5.45-5.445v5.445l8.232-8.222.945.888-10.511 10.5v-5.388L0 31.445v-5.556L17.13 8.61 12.903 4h9.289a4.386 4.386 0 0 1 4.394 4.389v5.889a13.548 13.548 0 0 1-3.735 9.303 13.577 13.577 0 0 1-9.113 4.197v2.333l4.56 4.556h3.338V36Z" fill="#000"/><path d="M1.335 22.889H0V0h25.918v1.333H1.335V22.89Z" fill="#000"/><path d="M10.123 4.278H.667V5.61h9.456V4.278Zm2.224 4H.667V9.61h11.68V8.278Zm-7.564 3H3.448v7.7h1.335v-7.7Zm3.449 0H6.897v3.85h1.335v-3.85Zm36.263-2.389a7.07 7.07 0 0 1 2.447.389 5.62 5.62 0 0 1 1.89 1c.51.44.91.99 1.169 1.61a5.44 5.44 0 0 1 .445 2.223A7.38 7.38 0 0 1 50.167 16a4.72 4.72 0 0 1-.945 1.722A4.504 4.504 0 0 1 47.498 19a7.351 7.351 0 0 1-2.614.445h-2.392v5.61h-2.614V8.89h4.617Zm.333 8.056c.478.004.951-.09 1.39-.278.366-.142.69-.37.946-.667.214-.259.366-.563.445-.889.105-.304.161-.623.167-.944-.013-.28-.05-.56-.111-.834a3.111 3.111 0 0 0-.5-.944 2.614 2.614 0 0 0-.835-.722 3.73 3.73 0 0 0-1.446-.278h-2.392v5.556h2.336ZM47.61 18.5l4.172 6.556h-3.06l-4.17-6.445 3.058-.111Zm10.622 6.833a5.623 5.623 0 0 1-2.392-.555 4.504 4.504 0 0 1-1.724-1.667 5.774 5.774 0 0 1-.611-2.722c-.03-.951.2-1.893.667-2.722a4.447 4.447 0 0 1 1.724-1.778 4.34 4.34 0 0 1 2.336-.611 4.23 4.23 0 0 1 2.225.5c.493.353.925.785 1.279 1.277l-.111.334.222-1.722h2.336v9.388H61.68v-2.277l.223.61-.334.445-.723.667a6.889 6.889 0 0 1-1.112.555 4.23 4.23 0 0 1-1.502.278Zm.723-2.055c.419.012.836-.064 1.224-.223a2.89 2.89 0 0 0 .945-.722c.23-.327.416-.681.556-1.055v-2.056a2.998 2.998 0 0 0-.611-1 3.172 3.172 0 0 0-1.002-.667 2.84 2.84 0 0 0-1.223-.277c-.49.01-.967.144-1.39.389a3.22 3.22 0 0 0-1.057 1.055 3.385 3.385 0 0 0-.39 1.556c.002.532.156 1.053.445 1.5a2.89 2.89 0 0 0 1.057 1.11c.43.278.935.414 1.446.39Zm12.681 2-5.395-9.611h2.948l3.393 7.055h-1.558l3.06-7.055h2.836l-5.173 9.61h-.11Zm11.513.055a5.79 5.79 0 0 1-2.837-.666 4.225 4.225 0 0 1-1.78-1.778 4.884 4.884 0 0 1-.611-2.611c-.011-.896.22-1.78.667-2.556a5.505 5.505 0 0 1 4.617-2.444 4.675 4.675 0 0 1 3.225 1.11 5.442 5.442 0 0 1 1.669 3.167l-7.62 2.556-.556-1.389 5.896-2.11-.445.277a2.833 2.833 0 0 0-.834-1.167 2.226 2.226 0 0 0-1.502-.5 2.282 2.282 0 0 0-1.39.39c-.41.23-.739.578-.946 1a3.386 3.386 0 0 0-.334 1.555c-.014.555.1 1.106.334 1.61.264.43.626.792 1.056 1.056a2.95 2.95 0 0 0 1.447.334c.377.003.752-.053 1.112-.167.357-.14.694-.326 1.001-.556l1.168 1.834c-.51.314-1.05.575-1.613.777a6.51 6.51 0 0 1-1.724.278Zm9.622-9.666.223 2.055v-.277a3.557 3.557 0 0 1 1.446-1.556 4.23 4.23 0 0 1 2.28-.611 3.117 3.117 0 0 1 2.17.778 2.832 2.832 0 0 1 .945 2v7h-2.503V19a1.832 1.832 0 0 0-.39-1.167 1.612 1.612 0 0 0-1.223-.444c-.48.004-.948.16-1.335.444a2.778 2.778 0 0 0-.945 1.278 4.494 4.494 0 0 0-.334 1.834v4.11h-2.503v-9.388h2.17Zm12.625-6.778 5.117 12.722-1.501-.333 4.727-12.39h3.059l-7.286 16.945-7.175-16.944h3.059Zm15.796 16.444a5.791 5.791 0 0 1-2.837-.666 4.22 4.22 0 0 1-1.779-1.778 4.932 4.932 0 0 1-.668-2.611 5.061 5.061 0 0 1 .723-2.556 5.508 5.508 0 0 1 4.616-2.444 4.673 4.673 0 0 1 3.226 1.11 5.44 5.44 0 0 1 1.669 3.167l-7.62 2.556-.556-1.389 5.896-2.11-.445.277a2.837 2.837 0 0 0-.835-1.167 2.224 2.224 0 0 0-1.501-.5 2.283 2.283 0 0 0-1.391.39 2.055 2.055 0 0 0-.945 1 3.375 3.375 0 0 0-.334 1.555 3.61 3.61 0 0 0 .334 1.61c.264.43.626.792 1.056 1.056.446.233.944.348 1.446.334.378.003.753-.053 1.113-.167a4.28 4.28 0 0 0 1.001-.556l1.168 1.834a8.626 8.626 0 0 1-1.613.777 6.51 6.51 0 0 1-1.724.278Zm9.622-9.666.222 2.055v-.277a3.281 3.281 0 0 1 1.446-1.556 4.233 4.233 0 0 1 2.281-.611 3.117 3.117 0 0 1 2.169.778 2.825 2.825 0 0 1 .945 2v7h-2.502V19a1.832 1.832 0 0 0-.39-1.167 1.611 1.611 0 0 0-1.223-.444 2.29 2.29 0 0 0-1.335.444 2.78 2.78 0 0 0-.946 1.278 4.48 4.48 0 0 0-.333 1.834v4.11h-2.559v-9.388h2.225Zm14.238 9.666a4.897 4.897 0 0 1-2.336-.61 4.673 4.673 0 0 1-1.669-1.779 5.943 5.943 0 0 1-.611-2.722c-.032-.934.2-1.857.667-2.667a4.115 4.115 0 0 1 1.78-1.722 5.177 5.177 0 0 1 2.503-.555 4.674 4.674 0 0 1 1.946.389c.597.22 1.118.605 1.502 1.11V7.723h2.503v17.333h-2.503v-2.11l.222.61a5.555 5.555 0 0 1-1.668 1.278 4.9 4.9 0 0 1-2.336.5Zm.834-2.166c.438.016.873-.06 1.279-.223a3.167 3.167 0 0 0 1.002-.666 3.54 3.54 0 0 0 .611-1.111v-1.945a2.493 2.493 0 0 0-.611-1.055 3.279 3.279 0 0 0-1.002-.723 3.28 3.28 0 0 0-1.279-.222 2.562 2.562 0 0 0-1.446.389 2.449 2.449 0 0 0-1.057 1.056 2.782 2.782 0 0 0-.445 1.5c-.006.55.149 1.09.445 1.555.234.453.603.822 1.057 1.056.433.27.936.406 1.446.389Zm8.732-10.889a1.105 1.105 0 0 1 .445-.945 1.56 1.56 0 0 1 .946-.389c.366.02.717.156 1.001.39a1.222 1.222 0 0 1 .389.944 1.172 1.172 0 0 1-.389.944c-.271.254-.63.393-1.001.39a1.277 1.277 0 0 1-.946-.39 1.06 1.06 0 0 1-.445-.944Zm.112 3.389h2.447v9.389h-2.447v-9.39Zm8.12 0 .222 2.055v-.277a3.281 3.281 0 0 1 1.446-1.556 4.233 4.233 0 0 1 2.281-.611 3.117 3.117 0 0 1 2.169.778 2.825 2.825 0 0 1 .945 2v7h-2.503V19a1.831 1.831 0 0 0-.389-1.167 1.611 1.611 0 0 0-1.223-.444 2.57 2.57 0 0 0-1.391.444c-.4.344-.706.784-.89 1.278a4.497 4.497 0 0 0-.334 1.834v4.11h-2.502v-9.388h2.169Zm15.072 14.111a5.342 5.342 0 0 1-1.946-.278 4.94 4.94 0 0 1-1.446-.667 6.645 6.645 0 0 1-1.168-.944l1.446-1.722c.403.402.85.756 1.335 1.055.551.277 1.163.41 1.779.39a3.4 3.4 0 0 0 1.558-.334c.443-.165.83-.454 1.112-.834.257-.415.374-.902.334-1.388v-2.334l.111.5a3.505 3.505 0 0 1-1.39 1.5 4.567 4.567 0 0 1-2.448.611 4.45 4.45 0 0 1-2.391-.666 5.273 5.273 0 0 1-1.724-1.778 4.89 4.89 0 0 1-.668-2.556 4.611 4.611 0 0 1 .723-2.61 4.61 4.61 0 0 1 4.172-2.445 4.84 4.84 0 0 1 2.224.444 3.721 3.721 0 0 1 1.446 1.111l-.166.334.333-1.5h2.225v9.444a4.448 4.448 0 0 1-.667 2.389 5.738 5.738 0 0 1-1.947 1.667 6.738 6.738 0 0 1-2.837.61Zm-2.947-9.5a3.33 3.33 0 0 0 .389 1.5 3.55 3.55 0 0 0 1.112 1.11c.454.27.975.405 1.502.39a3.4 3.4 0 0 0 1.335-.223 2.558 2.558 0 0 0 1.001-.722c.297-.299.525-.659.667-1.055v-2.056a2.44 2.44 0 0 0-.667-1 2 2 0 0 0-1.001-.666 2.951 2.951 0 0 0-4.004 1.226c-.241.46-.357.976-.334 1.496Z" fill="#000"/></svg>