<svg width="27" height="36" fill="none" xmlns="http://www.w3.org/2000/svg"><path d="M13.07 27.111a12.806 12.806 0 0 0 9.102-3.742 12.776 12.776 0 0 0 3.746-9.091v-5.89a3.72 3.72 0 0 0-3.726-3.721h-7.787l3.67 3.944L.668 26.167v3.722l5.451-5.445v5.445L8.9 27.11" fill="#000"/><path d="M21.636 36h-3.894l-5.34-5.333v-4.223h.668c3.23 0 6.329-1.281 8.613-3.563a12.16 12.16 0 0 0 3.568-8.603v-5.89a3.054 3.054 0 0 0-3.06-3.055h-6.284l3.059 3.278L1.335 26.445v1.833l5.45-5.445v5.445l8.232-8.222.945.888-10.511 10.5v-5.388L0 31.445v-5.556L17.13 8.61 12.903 4h9.289a4.386 4.386 0 0 1 4.394 4.389v5.889a13.548 13.548 0 0 1-3.735 9.303 13.577 13.577 0 0 1-9.113 4.197v2.333l4.56 4.556h3.338V36Z" fill="#000"/><path d="M1.335 22.889H0V0h25.918v1.333H1.335V22.89Z" fill="#000"/><path d="M10.123 4.278H.667V5.61h9.456V4.278Zm2.224 4H.667V9.61h11.68V8.278Zm-7.564 3H3.448v7.7h1.335v-7.7Zm3.449 0H6.897v3.85h1.335v-3.85Z" fill="#000"/></svg>